<svg width="24" height="24" viewBox="0 0 24 24" fill="none" xmlns="http://www.w3.org/2000/svg">
<path fill-rule="evenodd" clip-rule="evenodd" d="M22 12C22 17.5228 17.5228 22 12 22C6.47715 22 2 17.5228 2 12C2 6.47715 6.47715 2 12 2C17.5228 2 22 6.47715 22 12ZM24 12C24 18.6274 18.6274 24 12 24C5.37258 24 0 18.6274 0 12C0 5.37258 5.37258 0 12 0C18.6274 0 24 5.37258 24 12ZM18.0404 8.70711C18.4309 8.31658 18.4309 7.68342 18.0404 7.29289C17.6499 6.90237 17.0167 6.90237 16.6262 7.29289L9.99996 13.9191L7.37373 11.2929C6.98321 10.9024 6.35004 10.9024 5.95952 11.2929C5.56899 11.6834 5.56899 12.3166 5.95952 12.7071L9.29285 16.0404C9.68338 16.431 10.3165 16.431 10.7071 16.0404L18.0404 8.70711Z" fill="#D9D9D9"/>
</svg>