<svg width="24" height="24" viewBox="0 0 24 24" fill="none" xmlns="http://www.w3.org/2000/svg">
<mask id="path-1-inside-1_30_32" fill="white">
<path fill-rule="evenodd" clip-rule="evenodd" d="M12 24C18.6274 24 24 18.6274 24 12C24 5.37258 18.6274 0 12 0C5.37258 0 0 5.37258 0 12C0 18.6274 5.37258 24 12 24ZM18.0404 8.70711C18.4309 8.31658 18.4309 7.68342 18.0404 7.29289C17.6499 6.90237 17.0167 6.90237 16.6262 7.29289L9.99996 13.9191L7.37373 11.2929C6.98321 10.9024 6.35004 10.9024 5.95952 11.2929C5.56899 11.6834 5.56899 12.3166 5.95952 12.7071L9.29285 16.0404C9.68338 16.431 10.3165 16.431 10.7071 16.0404L18.0404 8.70711Z"/>
</mask>
<path fill-rule="evenodd" clip-rule="evenodd" d="M12 24C18.6274 24 24 18.6274 24 12C24 5.37258 18.6274 0 12 0C5.37258 0 0 5.37258 0 12C0 18.6274 5.37258 24 12 24ZM18.0404 8.70711C18.4309 8.31658 18.4309 7.68342 18.0404 7.29289C17.6499 6.90237 17.0167 6.90237 16.6262 7.29289L9.99996 13.9191L7.37373 11.2929C6.98321 10.9024 6.35004 10.9024 5.95952 11.2929C5.56899 11.6834 5.56899 12.3166 5.95952 12.7071L9.29285 16.0404C9.68338 16.431 10.3165 16.431 10.7071 16.0404L18.0404 8.70711Z" fill="#D9D9D9"/>
<path d="M18.0404 7.29289L16.6262 8.70711L16.6262 8.70711L18.0404 7.29289ZM18.0404 8.70711L19.4546 10.1213L18.0404 8.70711ZM16.6262 7.29289L18.0404 8.70711L18.0404 8.70711L16.6262 7.29289ZM9.99996 13.9191L8.58575 15.3333L9.99996 16.7475L11.4142 15.3333L9.99996 13.9191ZM7.37373 11.2929L5.95952 12.7071L5.95952 12.7071L7.37373 11.2929ZM5.95952 11.2929L7.37373 12.7071L7.37373 12.7071L5.95952 11.2929ZM5.95952 12.7071L4.5453 14.1213L4.54531 14.1213L5.95952 12.7071ZM9.29285 16.0404L10.7071 14.6262L10.7071 14.6262L9.29285 16.0404ZM10.7071 16.0404L9.29285 14.6262L9.29285 14.6262L10.7071 16.0404ZM22 12C22 17.5228 17.5228 22 12 22V26C19.732 26 26 19.732 26 12H22ZM12 2C17.5228 2 22 6.47715 22 12H26C26 4.26801 19.732 -2 12 -2V2ZM2 12C2 6.47715 6.47715 2 12 2V-2C4.26801 -2 -2 4.26801 -2 12H2ZM12 22C6.47715 22 2 17.5228 2 12H-2C-2 19.732 4.26801 26 12 26V22ZM16.6262 8.70711C16.2357 8.31658 16.2357 7.68342 16.6262 7.29289L19.4546 10.1213C20.6262 8.94975 20.6262 7.05025 19.4546 5.87868L16.6262 8.70711ZM18.0404 8.70711C17.6499 9.09763 17.0167 9.09763 16.6262 8.70711L19.4546 5.87868C18.283 4.70711 16.3835 4.70711 15.212 5.87868L18.0404 8.70711ZM11.4142 15.3333L18.0404 8.70711L15.212 5.87868L8.58575 12.5049L11.4142 15.3333ZM5.95952 12.7071L8.58575 15.3333L11.4142 12.5049L8.78795 9.87868L5.95952 12.7071ZM7.37373 12.7071C6.98321 13.0976 6.35004 13.0976 5.95952 12.7071L8.78795 9.87868C7.61637 8.70711 5.71688 8.70711 4.5453 9.87868L7.37373 12.7071ZM7.37373 11.2929C7.76426 11.6834 7.76426 12.3166 7.37373 12.7071L4.54531 9.87868C3.37373 11.0503 3.37373 12.9497 4.5453 14.1213L7.37373 11.2929ZM10.7071 14.6262L7.37373 11.2929L4.54531 14.1213L7.87864 17.4547L10.7071 14.6262ZM9.29285 14.6262C9.68338 14.2357 10.3165 14.2357 10.7071 14.6262L7.87864 17.4547C9.05021 18.6262 10.9497 18.6262 12.1213 17.4546L9.29285 14.6262ZM16.6262 7.29289L9.29285 14.6262L12.1213 17.4547L19.4546 10.1213L16.6262 7.29289Z" fill="#D9D9D9" mask="url(#path-1-inside-1_30_32)"/>
</svg>
